<?xml version="1.0" standalone="no"?>
<!DOCTYPE svg PUBLIC "-//W3C//DTD SVG 20010904//EN"
 "http://www.w3.org/TR/2001/REC-SVG-20010904/DTD/svg10.dtd">
<svg version="1.0" xmlns="http://www.w3.org/2000/svg"
 width="512.000000pt" height="512.000000pt" viewBox="0 0 512.000000 512.000000"
 preserveAspectRatio="xMidYMid meet">
<metadata>
Created by potrace 1.11, written by Peter Selinger 2001-2013
</metadata>
<g transform="translate(0.000000,512.000000) scale(0.100000,-0.100000)"
fill="#000000" stroke="none">
<path d="M655 5105 c-255 -48 -460 -203 -570 -430 -88 -181 -80 22 -80 -2115
0 -2137 -8 -1934 80 -2115 78 -162 207 -289 371 -366 169 -80 -10 -74 2109
-74 l1890 0 90 28 c269 84 458 273 542 542 l28 90 0 1895 0 1895 -28 90 c-84
269 -273 458 -542 542 l-90 28 -1865 2 c-1504 1 -1879 -1 -1935 -12z m1145
-1617 c0 -13 170 -971 172 -973 2 -2 30 32 63 76 33 43 63 79 66 79 4 0 42
-38 84 -85 l77 -85 360 0 360 0 84 46 c97 53 76 57 205 -45 l76 -60 88 100
c48 55 88 99 90 97 2 -2 16 -103 30 -223 14 -121 29 -233 33 -249 4 -18 27
202 61 585 29 338 56 638 59 667 l5 52 47 0 48 0 10 -57 c5 -32 43 -250 83
-485 41 -236 76 -428 79 -428 3 0 32 36 65 80 33 44 62 79 65 79 3 0 40 -41
83 -90 l79 -89 329 0 329 0 0 -45 0 -45 -354 0 -354 0 -54 61 -54 61 -94 -121
c-51 -67 -96 -118 -100 -114 -4 4 -35 172 -69 373 -34 201 -66 380 -69 399 -5
22 -29 -210 -66 -635 -32 -368 -61 -692 -63 -721 l-6 -51 -44 -4 c-25 -2 -46
-1 -49 3 -3 6 -94 747 -94 771 0 6 -24 -14 -52 -45 l-53 -57 -105 84 -105 84
-73 -39 -74 -39 -388 0 -388 0 -57 65 -57 65 -96 -126 c-93 -121 -97 -125
-103 -98 -4 16 -36 194 -70 397 -35 202 -66 364 -69 360 -4 -5 -33 -305 -64
-668 -31 -363 -59 -679 -63 -703 l-5 -43 -47 3 -46 3 -47 385 c-25 212 -47
387 -47 390 -1 3 -23 -19 -50 -49 l-48 -55 -90 71 c-135 106 -119 102 -199 59
l-68 -36 -378 0 -378 0 0 45 0 45 362 0 361 0 92 49 91 49 94 -74 c52 -40 97
-74 100 -74 3 0 43 45 90 99 76 89 86 98 92 78 3 -12 19 -128 33 -257 27 -228
34 -274 36 -214 0 16 26 317 57 669 l57 639 25 7 c25 7 70 11 70 7z"/>
</g>
</svg>
